<svg width="20" height="14" viewBox="0 0 20 14" fill="none" xmlns="http://www.w3.org/2000/svg">
<path d="M4.375 14C1.95964 14 0 11.9844 0 9.5C0 7.5375 1.22135 5.86875 2.92274 5.25313C2.9197 5.16875 2.91667 5.08437 2.91667 5C2.91667 2.2375 5.09201 0 7.77778 0C9.57943 0 11.1502 1.00625 11.9918 2.50625C12.4536 2.1875 13.0126 2 13.6111 2C15.2214 2 16.5278 3.34375 16.5278 5C16.5278 5.38125 16.4579 5.74375 16.3333 6.08125C18.1076 6.45 19.4444 8.06563 19.4444 10C19.4444 12.2094 17.7036 14 15.5556 14H4.375ZM6.77517 7.21875C6.48958 7.5125 6.48958 7.9875 6.77517 8.27812C7.06076 8.56875 7.52257 8.57187 7.80512 8.27812L8.99002 7.05937V11.25C8.99002 11.6656 9.3151 12 9.71918 12C10.1233 12 10.4483 11.6656 10.4483 11.25V7.05937L11.6332 8.27812C11.9188 8.57187 12.3806 8.57187 12.6632 8.27812C12.9457 7.98438 12.9488 7.50938 12.6632 7.21875L10.2326 4.71875C9.94705 4.425 9.48524 4.425 9.20269 4.71875L6.77213 7.21875H6.77517Z" fill="#A5ACB9"/>
</svg>
